# xmcd
#
# Track frame offsets: 
#        150
#        21999
#        43401
#        62647
#        84767
#        106533
#        124173
#
# Disc length: 1968 seconds
#
# Revision: 0
# Processed by: cddbd v1.5.2PL0 Copyright (c) Steve Scherf et al.
# Submitted via: ExactAudioCopyFreeDBPlugin 1.0
#
DISCID=5107ae07
DTITLE=Royce Lovett - Love and Other Dreams
DYEAR=2017
DGENRE=R&B
TTITLE0=Up for Love
TTITLE1=Mr. Radio
TTITLE2=Runnin'
TTITLE3=Ballad (Fly)
TTITLE4=Sunday Morning (Thinking 'Bout You)
TTITLE5=A Hero Song
TTITLE6=Up for Love (YT Mix)
EXTD=
EXTT0=
EXTT1=
EXTT2=
EXTT3=
EXTT4=
EXTT5=
EXTT6=
PLAYORDER=
